<svg id="Layer_1" data-name="Layer 1" xmlns="http://www.w3.org/2000/svg" viewBox="0 0 876.45 256.06">
    <defs>
        <style>
        .cls-1,.cls-2{fill:none;stroke:#fff;stroke-miterlimit:10;}.cls-1{stroke-width:10px;}.cls-2{stroke-width:25px;}
        </style>
    </defs>
    <title>
        nubecula_title
    </title>
    <path class="cls-1" d="M340.14,75.74c-4.74.12-9.66.2-14-1.7S318.18,67.66,318.9,63c1-6.51,8.75-9.19,15.19-10.54,11-2.32,23.85-4.22,32.4,3.11a79.9,79.9,0,0,1,23.11-23c7.5-4.88,18.64-8,24.48-1.2,3.71,4.31,3.38,10.66,2.84,16.32,3.81-2.53,8-4.73,12.56-5.17a17.93,17.93,0,0,1,17.84,10.83c10.05,25-23.64,20.41-37.06,20.74Z" transform="translate(-27.03 -22.38)"/>
    <path class="cls-2" d="M445.07,185.15c1.92,11.33-1.61,22.79-5.1,33.74q-2.84,8.88-5.66,17.76c-1.47,4.61-3,9.39-6.36,12.91-4.43,4.7-11.21,6.33-17.64,6.84-27.14,2.17-54.88-13-67.74-37-4.25-7.92-6.94-16.58-9.14-25.3-3.72-14.73-6.11-30.18-3.22-45.09s11.82-29.31,25.67-35.56c8.5-3.83,18.11-4.37,27.43-4a148.81,148.81,0,0,1,32.22,4.94c5.74,1.53,11.54,3.49,16.13,7.27,6.82,5.61,10,14.39,12.94,22.73-39.72.66-78.86,9.53-116.67,21.7" transform="translate(-27.03 -22.38)"/>
    <path class="cls-2" d="M238.79,104.39c.62,17.3-3.38,32.3-5.38,49.3v9c-4,27-13,55-1,80,9,7,22,8,33,6,12-3,19-13,24-23,10-22,15-47,7-70-13-10-31-6-45-1A36.24,36.24,0,0,0,230,177.33" transform="translate(-27.03 -22.38)"/>
    <path class="cls-2" d="M142.92,151.07a146.74,146.74,0,0,0-4.06,80.4c1.66,7.14,5,15.26,12.09,17,3.13.77,6.43.1,9.54-.74,5.23-1.42,10.45-3.38,14.59-6.89,8-6.83,10.51-18,12.5-28.42l9.36-48.88c-5.13,19.77-10.27,39.59-13.18,59.81-.71,4.91-1.28,10-.28,14.83s3.84,9.6,8.34,11.71" transform="translate(-27.03 -22.38)"/>
    <path class="cls-2" d="M42.69,172.79q-2.05,45.32-2.61,90.66c-2.61-17,4.74-33.76,8.49-50.56,2-9.14,3.08-18.7,7.46-27s13.35-15.1,22.56-13.41c7.6,1.4,13.26,8.26,15.53,15.64s1.79,15.31,1.28,23l-3,45.3" transform="translate(-27.03 -22.38)"/>
    <path class="cls-2" d="M573.63,152.42c-13.22-10.65-32.68-8.39-48.54-2.33-6.18,2.36-12.28,5.27-17.23,9.67-12.36,11-15.41,28.78-17.71,45.15-1.06,7.54-1.95,15.86,2.27,22.19,1.93,2.89,4.76,5.05,7.61,7.05,8.93,6.26,18.74,11.53,29.37,14a62.22,62.22,0,0,0,56.75-16.19" transform="translate(-27.03 -22.38)"/>
    <path class="cls-2" d="M620.25,143.63c-11.12,26.71-20.18,56.79-10.76,84.16,3.07,8.91,8.59,17.64,17.26,21.33,11.55,4.92,25.43-.8,33.73-10.22s12.28-21.78,16.06-33.76q6.48-20.53,13-41.08c-5.09,20.84-16.42,40.37-17,61.81-.28,9.73,2.7,20.86,11.47,25.1" transform="translate(-27.03 -22.38)"/>
    <path class="cls-2" d="M748.57,133c-5.86,35.31-10.93,70.06-13.27,106-.26,4,1.29,9.11,4.91,11.34,6.29,4.42,12.23-.2,18.21-3.2" transform="translate(-27.03 -22.38)"/>
    <path class="cls-2" d="M842.56,191.88c1.91-2.85,1.14-6.92-1.1-9.52s-5.61-4-9-4.69c-14.9-3.21-31,5.37-38.28,18.76s-6.21,30.43,1,43.84c1.62,3,3.61,5.94,6.53,7.71a22.62,22.62,0,0,0,7.58,2.44c9.27,1.75,19.48,2.84,27.57-2,5.81-3.49,9.63-9.65,11.66-16.12s2.47-13.31,2.89-20.07l.77-12.39c.3-4.81.57-9.81-1.24-14.27s-6.36-8.22-11.12-7.46" transform="translate(-27.03 -22.38)"/>
    <path class="cls-2" d="M881.27,163c-7.55,9-15.32,18.38-18.48,29.7a64.6,64.6,0,0,0-1.87,18.4,146.21,146.21,0,0,0,4,31.79c1.69,7,4.15,14.34,9.62,19.09s14.77,5.76,19.58.34" transform="translate(-27.03 -22.38)"/>
</svg>